<svg width="650" height="362" viewBox="0 0 832 362" fill="none" xmlns="http://www.w3.org/2000/svg">
<g clip-path="url(#clip0)">
<path d="M750.489 149.335H262.35C260.277 149.335 258.289 150.161 256.824 151.631C255.358 153.101 254.535 155.095 254.535 157.174C254.535 159.253 255.358 161.246 256.824 162.716C258.289 164.186 260.277 165.012 262.35 165.012H276.176V352.528C276.176 354.607 277 356.601 278.465 358.071C279.931 359.541 281.919 360.366 283.991 360.366C286.064 360.366 288.052 359.541 289.517 358.071C290.983 356.601 291.806 354.607 291.806 352.528L291.925 165.012H683.706L719.83 352.528C719.83 354.607 720.653 356.601 722.119 358.071C723.584 359.541 725.572 360.366 727.645 360.366C729.717 360.366 731.705 359.541 733.171 358.071C734.636 356.601 735.46 354.607 735.46 352.528L737.733 165.012H750.489C752.561 165.012 754.549 164.186 756.015 162.716C757.48 161.246 758.304 159.253 758.304 157.174C758.304 155.095 757.48 153.101 756.015 151.631C754.549 150.161 752.561 149.335 750.489 149.335V149.335Z" fill="#CCCCCC"/>
<path d="M346.962 114.409V147.603H264.048C261.875 147.678 259.708 147.324 257.672 146.56C255.635 145.796 253.769 144.637 252.179 143.15C250.589 141.662 249.306 139.875 248.405 137.891C247.504 135.906 247.001 133.763 246.925 131.583C246.849 129.404 247.203 127.231 247.964 125.188C248.726 123.146 249.881 121.273 251.365 119.679C252.848 118.084 254.629 116.798 256.608 115.894C258.587 114.99 260.724 114.485 262.897 114.409C263.28 114.396 263.664 114.396 264.048 114.409L346.962 114.409Z" fill="#F2F2F2"/>
<path d="M348.999 147.347C348.999 147.686 348.864 148.01 348.626 148.25C348.387 148.489 348.063 148.624 347.726 148.624H262.571C257.948 148.621 253.516 146.777 250.248 143.497C246.981 140.217 245.145 135.77 245.145 131.134C245.145 126.497 246.981 122.05 250.248 118.771C253.516 115.491 257.948 113.647 262.571 113.644H347.726C347.893 113.643 348.059 113.676 348.214 113.74C348.369 113.804 348.51 113.898 348.628 114.016C348.747 114.135 348.841 114.276 348.905 114.431C348.969 114.586 349.002 114.752 349.002 114.92C349.002 115.088 348.969 115.254 348.905 115.41C348.841 115.565 348.747 115.706 348.628 115.824C348.51 115.943 348.369 116.037 348.214 116.101C348.059 116.165 347.893 116.197 347.726 116.197H262.571C258.625 116.203 254.843 117.779 252.055 120.58C249.267 123.38 247.701 127.176 247.701 131.134C247.701 135.091 249.267 138.887 252.055 141.688C254.843 144.488 258.625 146.065 262.571 146.071H347.726C348.063 146.071 348.387 146.205 348.626 146.445C348.864 146.684 348.999 147.009 348.999 147.347V147.347Z" fill="#6C63FF"/>
<path d="M346.962 122.069H257.861C257.794 122.07 257.729 122.043 257.681 121.996C257.633 121.948 257.606 121.884 257.606 121.816C257.605 121.749 257.631 121.684 257.678 121.635C257.725 121.587 257.789 121.559 257.857 121.559H346.962C347.029 121.559 347.093 121.586 347.14 121.634C347.188 121.682 347.214 121.747 347.214 121.814C347.214 121.881 347.188 121.946 347.14 121.994C347.093 122.041 347.029 122.069 346.962 122.069Z" fill="#CCCCCC"/>
<path d="M346.962 128.197H257.861C257.794 128.197 257.729 128.171 257.681 128.124C257.633 128.076 257.606 128.012 257.606 127.944C257.605 127.877 257.631 127.812 257.678 127.763C257.725 127.715 257.789 127.687 257.857 127.687H346.962C347.029 127.687 347.093 127.714 347.14 127.762C347.188 127.81 347.214 127.875 347.214 127.942C347.214 128.009 347.188 128.074 347.14 128.121C347.093 128.169 347.029 128.196 346.962 128.197Z" fill="#CCCCCC"/>
<path d="M346.962 134.325H257.861C257.794 134.326 257.729 134.299 257.681 134.252C257.633 134.204 257.606 134.14 257.606 134.072C257.605 134.005 257.631 133.94 257.678 133.891C257.725 133.843 257.789 133.815 257.857 133.814H346.962C347.029 133.815 347.093 133.842 347.14 133.89C347.188 133.938 347.214 134.003 347.214 134.07C347.214 134.137 347.188 134.202 347.14 134.249C347.093 134.297 347.029 134.324 346.962 134.325Z" fill="#CCCCCC"/>
<path d="M346.962 140.453H257.861C257.794 140.453 257.729 140.427 257.681 140.38C257.633 140.332 257.606 140.268 257.606 140.2C257.605 140.133 257.631 140.067 257.678 140.019C257.725 139.971 257.789 139.943 257.857 139.942H346.962C347.029 139.943 347.093 139.97 347.14 140.018C347.188 140.066 347.214 140.13 347.214 140.198C347.214 140.265 347.188 140.33 347.14 140.377C347.093 140.425 347.029 140.452 346.962 140.453Z" fill="#CCCCCC"/>
<path d="M331.332 79.4383V112.631H248.418C244.029 112.784 239.76 111.183 236.549 108.179C233.337 105.174 231.448 101.014 231.295 96.6122C231.142 92.2105 232.739 87.9283 235.734 84.7075C238.73 81.4868 242.878 79.5914 247.267 79.4383C247.65 79.4249 248.034 79.4249 248.418 79.4383H331.332Z" fill="#F2F2F2"/>
<path d="M333.369 112.376C333.369 112.715 333.234 113.039 332.996 113.279C332.757 113.518 332.433 113.653 332.096 113.653H246.941C242.316 113.653 237.881 111.81 234.61 108.53C231.34 105.25 229.503 100.801 229.503 96.1625C229.503 91.5238 231.34 87.0752 234.61 83.7951C237.881 80.5151 242.316 78.6724 246.941 78.6724H332.096C332.263 78.6724 332.429 78.7054 332.583 78.7695C332.737 78.8337 332.878 78.9277 332.996 79.0463C333.114 79.1648 333.208 79.3056 333.272 79.4605C333.336 79.6154 333.369 79.7814 333.369 79.949C333.369 80.1167 333.336 80.2827 333.272 80.4376C333.208 80.5924 333.114 80.7332 332.996 80.8517C332.878 80.9703 332.737 81.0643 332.583 81.1285C332.429 81.1926 332.263 81.2257 332.096 81.2257H246.941C242.991 81.2257 239.203 82.7994 236.411 85.6006C233.618 88.4018 232.049 92.201 232.049 96.1625C232.049 100.124 233.618 103.923 236.411 106.724C239.203 109.526 242.991 111.099 246.941 111.099H332.096C332.433 111.1 332.757 111.234 332.996 111.473C333.234 111.713 333.369 112.037 333.369 112.376Z" fill="#3F3D56"/>
<path d="M331.332 87.0985H242.231C242.164 87.0989 242.099 87.0725 242.051 87.0251C242.003 86.9777 241.976 86.9131 241.976 86.8456C241.975 86.778 242.001 86.713 242.048 86.6647C242.095 86.6164 242.159 86.5888 242.227 86.5879H331.332C331.399 86.5886 331.463 86.6158 331.51 86.6636C331.558 86.7114 331.584 86.7759 331.584 86.8432C331.584 86.9105 331.558 86.9751 331.51 87.0229C331.463 87.0707 331.399 87.0979 331.332 87.0985V87.0985Z" fill="#CCCCCC"/>
<path d="M331.332 93.2265H242.231C242.164 93.2268 242.099 93.2004 242.051 93.153C242.003 93.1056 241.976 93.0411 241.976 92.9735C241.975 92.906 242.001 92.8409 242.048 92.7926C242.095 92.7443 242.159 92.7167 242.227 92.7158H331.332C331.399 92.7165 331.463 92.7437 331.51 92.7915C331.558 92.8393 331.584 92.9039 331.584 92.9711C331.584 93.0384 331.558 93.103 331.51 93.1508C331.463 93.1986 331.399 93.2258 331.332 93.2265Z" fill="#CCCCCC"/>
<path d="M331.332 99.3544H242.231C242.164 99.3548 242.099 99.3284 242.051 99.2809C242.003 99.2335 241.976 99.169 241.976 99.1014C241.975 99.0339 242.001 98.9688 242.048 98.9205C242.095 98.8722 242.159 98.8446 242.227 98.8438H331.332C331.399 98.8444 331.463 98.8716 331.51 98.9194C331.558 98.9672 331.584 99.0318 331.584 99.0991C331.584 99.1664 331.558 99.2309 331.51 99.2787C331.463 99.3265 331.399 99.3537 331.332 99.3544Z" fill="#CCCCCC"/>
<path d="M331.332 105.482H242.231C242.164 105.483 242.099 105.456 242.051 105.409C242.003 105.361 241.976 105.297 241.976 105.229C241.975 105.162 242.001 105.097 242.048 105.048C242.095 105 242.159 104.973 242.227 104.972H331.332C331.399 104.972 331.463 105 331.51 105.047C331.558 105.095 331.584 105.16 331.584 105.227C331.584 105.294 331.558 105.359 331.51 105.407C331.463 105.454 331.399 105.482 331.332 105.482V105.482Z" fill="#CCCCCC"/>
<path d="M427.786 266.792V237.85C427.786 236.571 427.28 235.344 426.378 234.44C425.476 233.535 424.253 233.027 422.977 233.027H313.567C312.291 233.027 311.068 233.535 310.166 234.44C309.264 235.344 308.758 236.571 308.758 237.85V266.792H427.786Z" fill="#CCCCCC"/>
<path d="M427.786 277.645H308.758V315.027H427.786V277.645Z" fill="#CCCCCC"/>
<path d="M308.758 325.88V354.822C308.758 356.101 309.264 357.328 310.166 358.233C311.068 359.137 312.291 359.645 313.567 359.645H422.977C424.253 359.645 425.476 359.137 426.378 358.233C427.28 357.328 427.786 356.101 427.786 354.822V325.88H308.758Z" fill="#CCCCCC"/>
<path d="M367.671 254.732C369.663 254.732 371.278 253.113 371.278 251.115C371.278 249.117 369.663 247.497 367.671 247.497C365.679 247.497 364.064 249.117 364.064 251.115C364.064 253.113 365.679 254.732 367.671 254.732Z" fill="white"/>
<path d="M367.671 302.968C369.663 302.968 371.278 301.349 371.278 299.351C371.278 297.353 369.663 295.733 367.671 295.733C365.679 295.733 364.064 297.353 364.064 299.351C364.064 301.349 365.679 302.968 367.671 302.968Z" fill="white"/>
<path d="M367.864 350.183C369.856 350.183 371.471 348.563 371.471 346.565C371.471 344.567 369.856 342.947 367.864 342.947C365.872 342.947 364.257 344.567 364.257 346.565C364.257 348.563 365.872 350.183 367.864 350.183Z" fill="white"/>
<path d="M414.292 200.028V233.221H331.377C326.991 233.371 322.724 231.768 319.515 228.764C316.307 225.76 314.419 221.601 314.266 217.202C314.113 212.802 315.708 208.522 318.701 205.301C321.694 202.081 325.839 200.184 330.225 200.028C330.609 200.014 330.993 200.014 331.377 200.028H414.292Z" fill="#F2F2F2"/>
<path d="M416.328 232.965C416.328 233.304 416.194 233.629 415.955 233.868C415.717 234.107 415.393 234.242 415.055 234.242H329.901C325.277 234.243 320.842 232.402 317.571 229.125C314.3 225.847 312.461 221.4 312.458 216.762C312.455 212.125 314.289 207.676 317.556 204.394C320.823 201.112 325.256 199.266 329.88 199.262H415.055C415.223 199.261 415.389 199.294 415.544 199.358C415.698 199.422 415.839 199.516 415.958 199.634C416.076 199.753 416.17 199.894 416.234 200.049C416.299 200.204 416.332 200.37 416.332 200.538C416.332 200.706 416.299 200.873 416.234 201.028C416.17 201.183 416.076 201.324 415.958 201.442C415.839 201.561 415.698 201.655 415.544 201.719C415.389 201.783 415.223 201.815 415.055 201.815H329.901C325.954 201.82 322.171 203.396 319.383 206.197C316.594 208.997 315.028 212.794 315.028 216.752C315.028 220.71 316.594 224.506 319.383 227.307C322.171 230.108 325.954 231.684 329.901 231.689H415.055C415.393 231.689 415.717 231.823 415.955 232.063C416.194 232.302 416.328 232.627 416.328 232.965V232.965Z" fill="#3F3D56"/>
<path d="M414.292 207.687H325.191C325.124 207.688 325.059 207.661 325.011 207.614C324.963 207.566 324.936 207.502 324.935 207.434C324.935 207.367 324.961 207.302 325.008 207.254C325.055 207.205 325.119 207.178 325.186 207.177H414.292C414.359 207.177 414.423 207.205 414.47 207.252C414.517 207.3 414.544 207.365 414.544 207.432C414.544 207.499 414.517 207.564 414.47 207.612C414.423 207.66 414.359 207.687 414.292 207.687H414.292Z" fill="#CCCCCC"/>
<path d="M414.292 213.816H325.191C325.124 213.816 325.059 213.79 325.011 213.742C324.963 213.695 324.936 213.63 324.935 213.563C324.935 213.495 324.961 213.43 325.008 213.382C325.055 213.334 325.119 213.306 325.186 213.305H414.292C414.359 213.306 414.423 213.333 414.47 213.381C414.517 213.429 414.544 213.493 414.544 213.56C414.544 213.628 414.517 213.692 414.47 213.74C414.423 213.788 414.359 213.815 414.292 213.816H414.292Z" fill="#CCCCCC"/>
<path d="M414.292 219.943H325.191C325.124 219.944 325.059 219.917 325.011 219.87C324.963 219.822 324.936 219.758 324.935 219.69C324.935 219.623 324.961 219.558 325.008 219.509C325.055 219.461 325.119 219.434 325.186 219.433H414.292C414.359 219.433 414.423 219.46 414.47 219.508C414.517 219.556 414.544 219.621 414.544 219.688C414.544 219.755 414.517 219.82 414.47 219.868C414.423 219.915 414.359 219.943 414.292 219.943H414.292Z" fill="#CCCCCC"/>
<path d="M414.292 226.072H325.191C325.124 226.072 325.059 226.046 325.011 225.998C324.963 225.951 324.936 225.886 324.935 225.819C324.935 225.751 324.961 225.686 325.008 225.638C325.055 225.59 325.119 225.562 325.186 225.561H414.292C414.359 225.562 414.423 225.589 414.47 225.637C414.517 225.685 414.544 225.749 414.544 225.816C414.544 225.884 414.517 225.948 414.47 225.996C414.423 226.044 414.359 226.071 414.292 226.072H414.292Z" fill="#CCCCCC"/>
<path d="M316.913 68.3656H279.137C278.778 68.3653 278.424 68.4479 278.103 68.6068L268.568 73.3942C268.255 73.5279 267.987 73.7513 267.799 74.0365C267.611 74.3217 267.511 74.6561 267.511 74.998C267.511 75.3399 267.611 75.6743 267.799 75.9595C267.987 76.2447 268.255 76.468 268.568 76.6018L278.103 81.3891C278.424 81.5481 278.778 81.6307 279.137 81.6304H316.913C317.434 81.6606 317.945 81.4839 318.337 81.1385C318.729 80.7932 318.969 80.307 319.006 79.7853V70.2106C318.969 69.6889 318.729 69.2028 318.337 68.8574C317.945 68.5121 317.434 68.3354 316.913 68.3656V68.3656Z" fill="#3F3D56"/>
<path d="M319.006 70.2107V79.7854C318.969 80.3071 318.729 80.7933 318.337 81.1386C317.945 81.4839 317.434 81.6606 316.913 81.6304H309.387V68.3656H316.913C317.434 68.3354 317.945 68.5121 318.337 68.8575C318.729 69.2028 318.969 69.689 319.006 70.2107V70.2107Z" fill="#6C63FF"/>
<path d="M90.4311 255.978C95.2954 257.693 100.518 258.123 105.596 257.226C110.674 256.329 115.436 254.135 119.423 250.856C129.577 242.308 132.761 228.225 135.352 215.184C137.906 202.327 140.46 189.47 143.014 176.613L126.972 187.692C115.436 195.659 103.64 203.881 95.6525 215.421C87.6649 226.961 84.1783 242.714 90.5961 255.2" fill="#539E43"/>
<path d="M91.8023 302.676C90.1787 290.815 88.5092 278.801 89.6481 266.812C90.6596 256.164 93.8983 245.765 100.492 237.238C103.992 232.72 108.25 228.85 113.077 225.8C114.335 225.004 115.493 227.004 114.24 227.797C105.89 233.09 99.4311 240.906 95.7952 250.119C91.7795 260.363 91.1346 271.53 91.8266 282.413C92.2451 288.994 93.132 295.532 94.0258 302.062C94.0962 302.357 94.0523 302.668 93.9028 302.932C93.7533 303.196 93.5095 303.393 93.2206 303.484C92.9258 303.564 92.6116 303.524 92.3461 303.372C92.0806 303.221 91.8852 302.971 91.8024 302.676L91.8023 302.676Z" fill="#438236"/>
<path d="M107.441 281.687C109.527 284.867 112.395 287.455 115.767 289.201C119.14 290.947 122.904 291.792 126.697 291.655C136.445 291.191 144.572 284.367 151.888 277.889L173.526 258.727L159.205 258.04C148.906 257.546 138.342 257.084 128.533 260.27C118.724 263.455 109.677 271.121 107.883 281.305" fill="#539E43"/>
<path d="M87.2139 309.495C95.0286 295.626 104.093 280.213 120.29 275.286C124.793 273.921 129.515 273.432 134.202 273.845C135.679 273.973 135.31 276.257 133.836 276.129C125.98 275.475 118.139 277.556 111.634 282.021C105.374 286.294 100.5 292.236 96.3744 298.537C93.8475 302.396 91.584 306.419 89.3201 310.437C88.5966 311.721 86.4819 310.794 87.2139 309.495L87.2139 309.495Z" fill="#438236"/>
<path d="M74.6924 324.093C74.9557 321.033 76.0511 318.104 77.8594 315.625C79.6676 313.147 82.1193 311.213 84.9474 310.035V302.017H98.3552V310.288C101.044 311.523 103.358 313.452 105.062 315.877C106.765 318.303 107.797 321.138 108.052 324.093L111.205 360.851H71.5396L74.6924 324.093Z" fill="#891D1D"/>
<path d="M530.668 148.582L526.68 146.898L523.943 126.843H487.506L484.541 146.816L480.972 148.605C480.801 148.691 480.665 148.832 480.584 149.005C480.503 149.179 480.483 149.374 480.526 149.561C480.57 149.747 480.676 149.913 480.825 150.032C480.975 150.151 481.16 150.215 481.351 150.215H530.339C530.535 150.215 530.725 150.147 530.876 150.023C531.027 149.899 531.131 149.726 531.17 149.534C531.209 149.341 531.18 149.141 531.088 148.968C530.997 148.795 530.848 148.658 530.668 148.582V148.582Z" fill="#E6E6E6"/>
<path d="M595.419 129.511H416.431C415.492 129.509 414.592 129.133 413.928 128.467C413.265 127.8 412.893 126.896 412.893 125.955V100.64H598.957V125.955C598.957 126.896 598.585 127.8 597.921 128.467C597.258 129.133 596.358 129.509 595.419 129.511V129.511Z" fill="#CCCCCC"/>
<path d="M599.144 112.604H412.729V4.28745C412.73 3.15073 413.181 2.06094 413.983 1.25717C414.784 0.453394 415.871 0.00127192 417.004 0H594.869C596.003 0.0012719 597.089 0.453396 597.891 1.25717C598.692 2.06094 599.143 3.15072 599.144 4.28745L599.144 112.604Z" fill="#3F3D56"/>
<path d="M588.01 104.743H423.863C422.989 104.742 422.152 104.393 421.534 103.773C420.916 103.154 420.568 102.314 420.567 101.437V11.1669C420.568 10.2905 420.916 9.4503 421.534 8.83061C422.152 8.21091 422.989 7.86233 423.863 7.86133H588.01C588.884 7.86233 589.722 8.21091 590.34 8.83061C590.958 9.4503 591.305 10.2905 591.306 11.1669V101.437C591.305 102.314 590.958 103.154 590.34 103.773C589.722 104.393 588.884 104.742 588.01 104.743V104.743Z" fill="white"/>
<path d="M544.776 136.595C545.836 135.613 547.098 134.876 548.472 134.436C549.847 133.996 551.3 133.864 552.731 134.049C554.162 134.233 555.535 134.73 556.754 135.505C557.973 136.279 559.007 137.312 559.785 138.531L581.988 134.572L587.677 147.518L556.244 152.667C554.116 153.842 551.633 154.192 549.264 153.653C546.895 153.113 544.806 151.721 543.393 149.74C541.979 147.759 541.339 145.326 541.594 142.904C541.849 140.481 542.981 138.236 544.776 136.595V136.595Z" fill="#FFB6B6"/>
<path d="M565.333 153.124L588.48 152.835L591.41 152.795L638.503 152.2C638.503 152.2 651.292 139.963 662.428 127.364L660.867 116.042C659.344 104.929 653.848 94.7503 645.402 87.3989C629.453 98.0877 620.204 119.245 620.204 119.245L591.004 126.25L588.083 126.95L569.939 131.299L565.333 153.124Z" fill="#663399"/>
<path d="M683.825 222.72H640.618C640.618 224.577 593.387 226.084 593.387 226.084C592.345 226.87 591.396 227.773 590.557 228.775C588.036 231.791 586.658 235.603 586.666 239.539V242.23C586.668 246.69 588.435 250.967 591.579 254.121C594.724 257.275 598.988 259.047 603.435 259.049H683.825C688.271 259.045 692.534 257.272 695.678 254.118C698.822 250.965 700.59 246.689 700.594 242.23V239.539C700.588 235.08 698.819 230.806 695.676 227.653C692.532 224.5 688.271 222.726 683.825 222.72V222.72Z" fill="#E4E4E4"/>
<path d="M652.405 258.381H634.965V359.345H652.405V258.381Z" fill="#E4E4E4"/>
<path d="M585.328 358.73C585.328 360.62 611.756 359.462 644.356 359.462C676.956 359.462 703.384 360.62 703.384 358.73C703.384 356.84 676.956 341.853 644.356 341.853C611.756 341.853 585.328 356.84 585.328 358.73Z" fill="#E4E4E4"/>
<path d="M573.613 347.194L560.634 347.193L554.459 296.98L573.615 296.981L573.613 347.194Z" fill="#FFB6B6"/>
<path d="M576.923 359.813L535.072 359.812V359.281C535.072 354.948 536.788 350.792 539.843 347.728C542.898 344.664 547.041 342.943 551.361 342.943H551.362L576.924 342.944L576.923 359.813Z" fill="#2F2E41"/>
<path d="M535.251 347.194L522.271 347.193L516.097 296.98L535.253 296.981L535.251 347.194Z" fill="#FFB6B6"/>
<path d="M538.561 359.813L496.71 359.812V359.281C496.71 354.948 498.426 350.792 501.481 347.728C504.536 344.664 508.679 342.943 512.999 342.943H513L538.562 342.944L538.561 359.813Z" fill="#2F2E41"/>
<path d="M651.519 58.1127C663.982 58.1127 674.086 47.9787 674.086 35.4778C674.086 22.9768 663.982 12.8428 651.519 12.8428C639.055 12.8428 628.951 22.9768 628.951 35.4778C628.951 47.9787 639.055 58.1127 651.519 58.1127Z" fill="#FFB6B6"/>
<path d="M688.044 190.564C688.044 190.564 695.617 230.724 666.806 235.838C637.995 240.952 596.405 244.546 596.405 244.546L577.729 331.943L552.638 329.696C552.638 329.696 555.975 224.49 564.181 216.259C572.388 208.029 624.255 183.383 624.255 183.383L688.044 190.564Z" fill="#2F2E41"/>
<path d="M631.775 173.733L619.174 186.411C619.174 186.411 528.191 201.11 524.681 222.187C519.382 254.007 513.123 323.204 513.123 323.204L540.477 321.146L551.204 242.489L594.972 232.503L644.768 205.285L631.775 173.733Z" fill="#2F2E41"/>
<path d="M673.235 21.9665C671.007 17.7508 668.177 9.34887 663.68 7.79063C661.183 6.96018 658.602 6.40874 655.985 6.14633L648.342 9.09464L652.502 5.84987C651.692 5.80148 650.882 5.76192 650.073 5.73119L644.917 7.72043L647.555 5.66236C642.747 5.61287 637.785 6.11424 634.06 9.0496C630.884 11.552 627.738 21.0316 627.229 25.0498C626.685 28.8938 626.875 32.8065 627.79 36.5791L629.096 37.8245C629.553 36.774 629.896 35.6774 630.12 34.5535C630.588 32.4536 631.488 30.4745 632.761 28.7424C634.034 27.0104 635.652 25.5632 637.514 24.4933L637.585 24.4531C639.775 23.2167 642.433 23.2737 644.945 23.3644L656.874 23.795C659.744 23.8985 662.834 24.0807 665.072 25.8864C666.494 27.2184 667.612 28.843 668.35 30.649C669.462 32.8997 671.634 41.3889 671.634 41.3889C671.634 41.3889 672.863 39.7864 673.453 40.9791C674.397 37.8673 674.972 34.6543 675.164 31.4071C675.352 28.1455 674.687 24.8912 673.235 21.9665V21.9665Z" fill="#2F2E41"/>
<path d="M752.167 45.4181C750.728 45.5131 749.326 45.9236 748.062 46.6207C746.798 47.3177 745.701 48.2842 744.85 49.4523C743.998 50.6203 743.412 51.9614 743.133 53.3811C742.855 54.8008 742.889 56.2646 743.236 57.6693L725.088 71.0959L730.533 84.1472L755.896 64.8252C758.21 64.0856 760.173 62.5201 761.414 60.4255C762.654 58.331 763.086 55.8528 762.626 53.4606C762.166 51.0684 760.848 48.9284 758.92 47.4461C756.993 45.9638 754.59 45.2422 752.167 45.4181V45.4181Z" fill="#FFB6B6"/>
<path d="M749.247 72.8287L703.752 123.506C703.752 123.506 681.995 116.521 665.169 108.947L657.61 85.6615C655.854 80.2595 655.105 74.5795 655.4 68.9056C678.726 62.6802 705.856 85.844 705.856 85.844L739.911 59.0894L749.247 72.8287Z" fill="#663399"/>
<path d="M643.089 194.307C634.972 191.495 626.579 188.587 617.526 187.495L617.138 187.448L617.245 187.071C626.616 154.069 624.277 132.957 619.685 101.246C618.708 94.4053 619.963 87.4317 623.262 81.3655C626.562 75.2994 631.728 70.466 637.991 67.5868L638.047 67.5616L663.903 65.9137L663.962 65.9102L682.766 71.4572C685.472 72.2611 687.839 73.9323 689.507 76.2149C691.174 78.4974 692.05 81.2654 691.999 84.0947C691.795 94.5237 692.227 106.168 692.685 118.495C693.711 146.15 694.772 174.747 688.751 193.301L688.719 193.398L688.639 193.462C683.103 197.983 676.169 200.426 669.03 200.37C660.59 200.37 651.976 197.386 643.089 194.307Z" fill="#663399"/>
<path d="M830.798 362H1.20231C0.883442 362 0.577632 361.873 0.352155 361.646C0.126678 361.42 0 361.114 0 360.794C0 360.474 0.126678 360.167 0.352155 359.941C0.577632 359.715 0.883442 359.588 1.20231 359.588H830.798C831.117 359.588 831.422 359.715 831.648 359.941C831.873 360.167 832 360.474 832 360.794C832 361.114 831.873 361.42 831.648 361.646C831.422 361.873 831.117 362 830.798 362Z" fill="#CCCCCC"/>
</g>
<defs>
<clipPath id="clip0">
<rect width="832" height="362" fill="white"/>
</clipPath>
</defs>
</svg>
