<svg width="350" height="440" viewBox="0 0 489 536" fill="none" xmlns="http://www.w3.org/2000/svg">
<g clip-path="url(#clip0)">
<path d="M98.5094 436.7C105.33 436.7 110.858 431.165 110.858 424.338C110.858 417.511 105.33 411.977 98.5094 411.977C91.6893 411.977 86.1605 417.511 86.1605 424.338C86.1605 431.165 91.6893 436.7 98.5094 436.7Z" fill="#F0F0F0"/>
<path d="M75.6547 438.914C80.439 438.914 84.3174 435.032 84.3174 430.242C84.3174 425.453 80.439 421.571 75.6547 421.571C70.8705 421.571 66.9921 425.453 66.9921 430.242C66.9921 435.032 70.8705 438.914 75.6547 438.914Z" fill="#F0F0F0"/>
<path d="M93.4557 51.3684C98.9409 51.3684 103.388 46.9171 103.388 41.4261C103.388 35.9352 98.9409 31.4839 93.4557 31.4839C87.9704 31.4839 83.5237 35.9352 83.5237 41.4261C83.5237 46.9171 87.9704 51.3684 93.4557 51.3684Z" fill="#CCCCCC"/>
<path d="M451.007 167.361C456.492 167.361 460.939 162.91 460.939 157.419C460.939 151.928 456.492 147.477 451.007 147.477C445.522 147.477 441.075 151.928 441.075 157.419C441.075 162.91 445.522 167.361 451.007 167.361Z" fill="#CCCCCC"/>
<path d="M109.181 229.5H92.6279V246.071H109.181V229.5Z" fill="#CCCCCC"/>
<path d="M7.3786 107.708H5.72327V0H111.664V1.65704H7.3786V107.708Z" fill="#CCCCCC"/>
<path d="M489 107.708H487.345V1.65704H383.059V0H489V107.708Z" fill="#CCCCCC"/>
<path d="M7.3786 198.845H5.72327V306.553H111.664V304.896H7.3786V198.845Z" fill="#CCCCCC"/>
<path d="M489 198.845H487.345V304.896H383.059V306.553H489V198.845Z" fill="#CCCCCC"/>
<path d="M151.392 50.5396H35.519V52.1966H151.392V50.5396Z" fill="#CCCCCC"/>
<path d="M68.6257 35.6265H66.9703V50.9541H68.6257V35.6265Z" fill="#CCCCCC"/>
<path d="M119.113 35.6265H117.458V50.9541H119.113V35.6265Z" fill="#CCCCCC"/>
<path d="M464.25 167.361H348.376V169.018H464.25V167.361Z" fill="#CCCCCC"/>
<path d="M381.483 152.448H379.828V167.775H381.483V152.448Z" fill="#CCCCCC"/>
<path d="M431.971 152.448H430.315V167.775H431.971V152.448Z" fill="#CCCCCC"/>
<path d="M158.841 245.242H42.968V246.899H158.841V245.242Z" fill="#CCCCCC"/>
<path d="M76.0746 230.329H74.4193V245.656H76.0746V230.329Z" fill="#CCCCCC"/>
<path d="M126.562 230.329H124.907V245.656H126.562V230.329Z" fill="#CCCCCC"/>
<path d="M245.657 346.683C271.255 346.683 292.006 341.861 292.006 335.912C292.006 329.964 271.255 325.142 245.657 325.142C220.059 325.142 199.308 329.964 199.308 335.912C199.308 341.861 220.059 346.683 245.657 346.683Z" fill="#3F3D56"/>
<path d="M282.841 443.211L238.147 446.52L238.269 448.172L282.963 444.863L282.841 443.211Z" fill="#CACACA"/>
<path d="M208.811 437.509L208.013 438.96L224.566 448.074L225.364 446.623L208.811 437.509Z" fill="#CACACA"/>
<path d="M255.589 431.606H240.691V433.263H255.589V431.606Z" fill="#CACACA"/>
<path d="M201.789 535.228L200.137 535.115L212.552 345.384L214.204 345.496L201.789 535.228Z" fill="#CACACA"/>
<path d="M263.039 535.212L254.762 360.394L256.416 360.313L264.692 535.131L263.039 535.212Z" fill="#CACACA"/>
<path d="M279.589 344.543L277.939 344.68L293.664 535.24L295.314 535.103L279.589 344.543Z" fill="#CACACA"/>
<path d="M227.448 535.191L225.793 535.151L230.759 360.333L232.414 360.373L227.448 535.191Z" fill="#CACACA"/>
<path d="M219.527 425.604L208.533 432.121L178.188 392.777L194.414 383.157L219.527 425.604Z" fill="#FFB6B6"/>
<path d="M228.642 434.608L193.195 455.624L192.93 455.175C190.763 451.513 190.138 447.138 191.193 443.014C192.247 438.89 194.895 435.354 198.554 433.184L198.555 433.184L220.205 420.348L228.642 434.608Z" fill="#2F2E41"/>
<path d="M272.615 425.604L283.608 432.121L313.953 392.777L297.728 383.157L272.615 425.604Z" fill="#FFB6B6"/>
<path d="M271.936 420.348L293.586 433.184L293.587 433.184C297.246 435.354 299.894 438.89 300.949 443.014C302.004 447.138 301.379 451.513 299.212 455.175L298.946 455.624L263.499 434.608L271.936 420.348Z" fill="#2F2E41"/>
<path d="M280.17 275.483C280.17 275.483 244.303 300.772 209.39 277.952L208.844 293.86C208.844 293.86 134.061 325.609 146.337 350.412C158.613 375.214 184.41 400.951 184.41 400.951L198.48 389.352L182.754 349.583L225.53 331.443L262.82 331.631L314.82 352.699L289.99 389.982L311.87 396.809C311.87 396.809 364.013 348.754 352.839 335.084C343.883 324.126 290.273 299.559 290.273 299.559L280.17 275.483Z" fill="#2F2E41"/>
<path d="M292.651 182.711L261.607 172.41L253.933 161.508H231.586L224.966 172.582L196.179 182.711C194.61 183.16 193.261 184.174 192.393 185.557C191.524 186.941 191.197 188.597 191.473 190.207L204.274 295.729L224.965 294.072C224.965 294.072 252.842 315.847 269.659 290.758L270.557 278.106L287.868 294.9L297.358 190.207C297.634 188.597 297.307 186.941 296.438 185.557C295.569 184.174 294.221 183.16 292.651 182.711Z" fill="#663399"/>
<path d="M268.817 111.154C259.638 95.6288 241.479 94.9052 241.479 94.9052C241.479 94.9052 223.784 92.6401 212.432 116.285C201.852 138.324 187.25 152.147 210.082 157.306L214.206 144.457L216.76 158.262C220.01 158.497 223.272 158.552 226.528 158.43C250.979 157.639 274.265 158.661 273.516 149.878C272.519 138.202 277.649 126.092 268.817 111.154Z" fill="#2F2E41"/>
<path d="M243.588 157.299C256.844 157.299 267.59 146.542 267.59 133.272C267.59 120.002 256.844 109.245 243.588 109.245C230.332 109.245 219.585 120.002 219.585 133.272C219.585 146.542 230.332 157.299 243.588 157.299Z" fill="#FFB8B8"/>
<path d="M265.586 108.829L247.646 99.4219L222.871 103.27L217.745 125.933L230.505 125.442L234.069 117.116V125.305L239.957 125.078L243.374 111.822L245.51 125.933L266.441 125.505L265.586 108.829Z" fill="#2F2E41"/>
<path opacity="0.2" d="M206.079 205.473L224.702 278.376C224.702 278.376 216.011 214.587 206.079 205.473Z" fill="black"/>
<path opacity="0.2" d="M261.646 279.204L280.268 206.302C270.336 215.415 261.646 279.204 261.646 279.204Z" fill="black"/>
<path d="M265.982 342.892C266.986 342.362 267.861 341.618 268.546 340.713C269.231 339.807 269.709 338.762 269.947 337.652C270.185 336.541 270.177 335.392 269.923 334.285C269.669 333.178 269.176 332.14 268.479 331.245L285.385 284.958L272.444 278.363L257.099 330.181C255.674 331.454 254.765 333.206 254.544 335.105C254.323 337.005 254.805 338.919 255.9 340.486C256.995 342.053 258.627 343.164 260.485 343.607C262.343 344.051 264.299 343.796 265.982 342.892V342.892Z" fill="#FFB6B6"/>
<path d="M282.318 200.919L263.456 283.027C263.274 283.875 263.432 284.761 263.895 285.494C264.359 286.228 265.091 286.75 265.935 286.948L284.1 289.568C284.547 289.674 285.011 289.685 285.462 289.601C285.914 289.517 286.343 289.34 286.723 289.081C287.102 288.822 287.424 288.487 287.667 288.097C287.91 287.707 288.069 287.271 288.135 286.816L293.661 201.278L282.318 200.919Z" fill="#663399"/>
<path d="M222.848 344.55C221.845 344.019 220.97 343.275 220.285 342.37C219.6 341.464 219.122 340.42 218.884 339.309C218.646 338.199 218.654 337.049 218.908 335.942C219.161 334.835 219.654 333.797 220.352 332.902L203.446 286.615L216.387 280.021L231.731 331.838C233.157 333.111 234.066 334.863 234.287 336.763C234.508 338.662 234.025 340.577 232.93 342.144C231.835 343.71 230.204 344.821 228.346 345.264C226.488 345.708 224.532 345.454 222.848 344.55V344.55Z" fill="#FFB6B6"/>
<path d="M206.513 202.576L225.375 284.684C225.557 285.532 225.399 286.418 224.935 287.151C224.472 287.885 223.74 288.407 222.896 288.605L204.731 291.225C204.284 291.33 203.82 291.341 203.368 291.257C202.917 291.174 202.488 290.997 202.108 290.738C201.729 290.479 201.407 290.144 201.164 289.754C200.921 289.364 200.762 288.927 200.696 288.472L193.514 202.934L206.513 202.576Z" fill="#663399"/>
<path d="M483.356 536H0.827665C0.608155 536 0.397622 535.913 0.242404 535.757C0.0871869 535.602 0 535.391 0 535.171C0 534.952 0.0871869 534.741 0.242404 534.585C0.397622 534.43 0.608155 534.343 0.827665 534.343H483.356C483.576 534.343 483.786 534.43 483.942 534.585C484.097 534.741 484.184 534.952 484.184 535.171C484.184 535.391 484.097 535.602 483.942 535.757C483.786 535.913 483.576 536 483.356 536Z" fill="#E4E4E4"/>
<path d="M415.166 449.704L415.785 448.821C426.409 456.288 434.159 472.898 438.819 498.188C440.95 510.001 442.228 521.952 442.645 533.948L441.568 533.969C441.555 533.303 439.983 467.147 415.166 449.704Z" fill="#E4E4E4"/>
<path d="M416.782 497.435L417.401 496.552C428.476 504.336 429.149 532.495 429.173 533.69L428.095 533.711C428.089 533.424 427.41 504.905 416.782 497.435Z" fill="#E4E4E4"/>
<path d="M409.008 449.263C411.984 449.263 414.397 446.847 414.397 443.868C414.397 440.888 411.984 438.473 409.008 438.473C406.032 438.473 403.619 440.888 403.619 443.868C403.619 446.847 406.032 449.263 409.008 449.263Z" fill="#E4E4E4"/>
<path d="M411.703 496.196C414.679 496.196 417.092 493.781 417.092 490.801C417.092 487.822 414.679 485.407 411.703 485.407C408.726 485.407 406.314 487.822 406.314 490.801C406.314 493.781 408.726 496.196 411.703 496.196Z" fill="#E4E4E4"/>
<path d="M435.901 441.853C437.614 445.699 438.179 449.96 437.528 454.12C436.878 458.281 435.039 462.165 432.234 465.303C430.521 461.457 429.956 457.196 430.607 453.036C431.257 448.875 433.096 444.991 435.901 441.853Z" fill="#E4E4E4"/>
<path d="M402.913 461.596C406.996 460.578 411.285 460.763 415.264 462.13C419.244 463.496 422.744 465.985 425.342 469.297C421.26 470.315 416.971 470.13 412.991 468.763C409.012 467.397 405.512 464.908 402.913 461.596Z" fill="#E4E4E4"/>
<path d="M405.728 504.826C408.59 504.112 411.596 504.242 414.385 505.2C417.175 506.158 419.628 507.903 421.449 510.224C418.588 510.937 415.582 510.808 412.792 509.85C410.003 508.892 407.55 507.147 405.728 504.826V504.826Z" fill="#E4E4E4"/>
</g>
<defs>
<clipPath id="clip0">
<rect width="489" height="536" fill="white"/>
</clipPath>
</defs>
</svg>
