<svg width="118" height="118" viewBox="0 0 118 118" fill="none" xmlns="http://www.w3.org/2000/svg">
<path d="M21.7636 100.304L13.4814 7.375H104.518L96.2253 100.289L58.9446 110.625L21.7636 100.304Z" fill="#1572B6"/>
<path d="M59 102.727L89.1269 94.3744L96.2142 14.9751H59V102.727Z" fill="#33A9DC"/>
<path d="M59 48.6418H74.0819L75.1217 36.9708H59V25.5728H87.5781L87.3053 28.6297L84.5064 60.0398H59V48.6418V48.6418Z" fill="white"/>
<path d="M59.0701 78.2416L59.0184 78.2564L46.3261 74.827L45.5148 65.7373H34.0725L35.6692 83.6327L59.0148 90.1154L59.0701 90.1006V78.2416V78.2416Z" fill="#EBEBEB"/>
<path d="M73.1121 59.5566L71.7404 74.8192L59.0295 78.2486V90.1076L82.3935 83.6323L82.5669 81.7075L84.547 59.5566H73.1121V59.5566Z" fill="white"/>
<path d="M59.0406 25.5728V36.9708H31.5097L31.2811 34.408L30.7612 28.6297L30.4883 25.5728H59.0406V25.5728Z" fill="#EBEBEB"/>
<path d="M59 48.6416V60.0397H46.4662L46.2376 57.4769L45.7214 51.6985L45.4485 48.6416H59V48.6416Z" fill="#EBEBEB"/>
</svg>
