<svg width="35" height="35" viewBox="0 0 42 42" fill="none" xmlns="http://www.w3.org/2000/svg">
<g clip-path="url(#clip0)">
<path fill-rule="evenodd" clip-rule="evenodd" d="M20.937 0C15.3844 0.000696036 10.0594 2.20678 6.13307 6.13307C2.20678 10.0594 0.000696036 15.3844 0 20.937C0 30.1822 6.0375 38.0179 14.2564 40.845C15.2854 40.9736 15.6686 40.3305 15.6686 39.816V36.2197C9.891 37.506 8.60738 33.3952 8.60738 33.3952C7.707 30.954 6.29475 30.3109 6.29475 30.3109C4.368 29.0273 6.42075 29.0272 6.42075 29.0272C8.47613 29.1559 9.63375 31.2113 9.63375 31.2113C11.5605 34.4216 14.5136 33.5212 15.6712 33.0094C15.7972 31.5971 16.4404 30.6994 16.9549 30.1849C12.3296 29.6704 7.44975 27.8722 7.44975 19.7794C7.44975 17.4694 8.21887 15.6686 9.63375 14.1278C9.5025 13.7419 8.73337 11.5605 9.891 8.73337C9.891 8.73337 11.6891 8.21887 15.6686 10.9174C17.3381 10.4029 19.1389 10.2743 20.937 10.2743C22.7351 10.2743 24.5333 10.5315 26.2028 10.9174C30.1849 8.2215 31.983 8.73337 31.983 8.73337C33.138 11.5605 32.3662 13.7419 32.2376 14.2564C33.6522 15.7975 34.4323 17.8161 34.4216 19.908C34.4216 28.0009 29.5391 29.6704 24.9191 30.1849C25.6882 30.8254 26.3314 32.109 26.3314 34.0357V39.816C26.3314 40.3305 26.7146 40.971 27.7436 40.845C31.9069 39.44 35.5233 36.762 38.0815 33.1895C40.6398 29.6171 42.0106 25.331 42 20.937C41.8714 9.3765 32.4975 0 20.937 0Z" fill="#7C3EBA"/>
</g>
<defs>
<clipPath id="clip0">
<rect width="50" height="50" fill="#7C3EBA"/>
</clipPath>
</defs>
</svg>
