<svg width="118" height="118" viewBox="0 0 118 118" fill="none" xmlns="http://www.w3.org/2000/svg">
<path d="M21.7638 100.304L13.478 7.375H104.522L96.2255 100.289L58.9449 110.625L21.7638 100.304Z" fill="#E44F26"/>
<path d="M59 102.725L89.1269 94.3729L96.2142 14.9736H59V102.725Z" fill="#F1662A"/>
<path d="M59 49.4396H43.9181L42.8783 37.7687H59V26.3706H30.4219L30.6948 29.4312L33.4936 60.8377H59V49.4396V49.4396Z" fill="#EBEBEB"/>
<path d="M58.9998 79.0377L58.9481 79.0525L46.2558 75.6268L45.4445 66.5371H34.0022L35.5989 84.4289L58.9481 90.9115L58.9998 90.8967V79.0377Z" fill="#EBEBEB"/>
<path d="M58.9595 49.439V60.837H72.9941L71.674 75.6202L58.9595 79.0496V90.9086L82.3272 84.4297L82.4968 82.5048L85.1739 52.4996L85.4542 49.439H58.9595V49.439Z" fill="white"/>
<path d="M58.9595 26.3706V37.7687H86.4903L86.719 35.2095L87.2389 29.4312L87.5118 26.3706H58.9595V26.3706Z" fill="white"/>
</svg>
