<svg width="80" height="80" viewBox="0 0 118 118" fill="none" xmlns="http://www.w3.org/2000/svg">
<path d="M0 0H118V118H0V0Z" fill="#F7DF1E"/>
<path d="M31.0266 98.6091L40.0564 93.1442C41.7987 96.233 43.3834 98.8465 47.1847 98.8465C50.8285 98.8465 53.1262 97.4213 53.1262 91.8771V54.1733H64.215V92.0338C64.215 103.519 57.4826 108.747 47.66 108.747C38.7892 108.747 33.6401 104.153 31.0261 98.6082" fill="black"/>
<path d="M70.2381 97.4208L79.267 92.1933C81.644 96.0748 84.7332 98.9262 90.1981 98.9262C94.7932 98.9262 97.7229 96.6289 97.7229 93.4604C97.7229 89.6586 94.713 88.3117 89.6436 86.0946L86.872 84.9054C78.8715 81.5005 73.5647 77.223 73.5647 68.1932C73.5647 59.876 79.9012 53.5391 89.8026 53.5391C96.8522 53.5391 101.922 55.9949 105.565 62.4107L96.9306 67.9558C95.0292 64.5499 92.9706 63.2035 89.8022 63.2035C86.5544 63.2035 84.4949 65.263 84.4949 67.9558C84.4949 71.2824 86.5544 72.6297 91.3067 74.6892L94.0787 75.877C103.505 79.9171 108.812 84.0356 108.812 93.3023C108.812 103.283 100.97 108.748 90.4355 108.748C80.1386 108.748 73.485 103.837 70.2377 97.4212" fill="black"/>
</svg>
