<svg width="35" height="35" viewBox="0 0 43 42" fill="none" xmlns="http://www.w3.org/2000/svg">
<g clip-path="url(#clip0)">
<path d="M9.76224 42V13.6627H0.544801V42H9.76224ZM5.15471 9.79138C8.369 9.79138 10.3697 7.6154 10.3697 4.89615C10.3098 2.11558 8.36912 0 5.21571 0C2.06279 0 0.000976562 2.11562 0.000976562 4.89615C0.000976562 7.61552 2.00122 9.79138 5.09454 9.79138H5.15443H5.15471ZM14.8641 42H24.0815V26.1751C24.0815 25.3281 24.1414 24.4821 24.3848 23.8767C25.0511 22.1845 26.5678 20.4319 29.114 20.4319C32.4494 20.4319 33.7838 23.0306 33.7838 26.84V41.9998H43.0006V25.7515C43.0006 17.0473 38.4533 12.9974 32.3887 12.9974C27.4163 12.9974 25.2331 15.8375 24.0202 17.7719H24.0817V13.6621H14.8643C14.9852 16.3211 14.8643 41.9995 14.8643 41.9995L14.8641 42Z" fill="#7C3EBA"/>
</g>
<defs>
<clipPath id="clip0">
<rect width="50" height="50" fill="#7C3EBA"/>
</clipPath>
</defs>
</svg>
