<svg width="80" height="69" viewBox="0 0 94 105" fill="none" xmlns="http://www.w3.org/2000/svg">
<g clip-path="url(#clip0)">
<path d="M46.5052 104.806C45.061 104.806 43.7131 104.42 42.4614 103.746L29.6554 96.14C27.7298 95.0809 28.6926 94.6958 29.2703 94.5032C31.8699 93.6367 32.3513 93.4441 35.0471 91.9033C35.3363 91.7107 35.7214 91.807 36.0099 91.9996L45.8312 97.873C46.2164 98.0656 46.6978 98.0656 46.9866 97.873L85.4042 75.6316C85.7894 75.439 85.9819 75.0539 85.9819 74.5725V30.1851C85.9819 29.7037 85.7894 29.3186 85.4042 29.126L46.9866 6.98045C46.6015 6.78788 46.1201 6.78788 45.8312 6.98045L7.41358 29.1264C7.02846 29.3189 6.8359 29.8003 6.8359 30.1854V74.5725C6.8359 74.9576 7.02846 75.439 7.41358 75.6316L17.9089 81.6972C23.5898 84.5856 27.1518 81.2158 27.1518 77.846V34.0363C27.1518 33.4586 27.6335 32.8809 28.3075 32.8809H33.2182C33.7958 32.8809 34.3735 33.3623 34.3735 34.0363V77.8456C34.3735 85.4521 30.2331 89.881 23.0117 89.881C20.7973 89.881 19.0642 89.881 14.1539 87.474L4.04377 81.6972C1.54048 80.2526 0 77.5568 0 74.6684V30.2817C0 27.3933 1.54048 24.6975 4.04377 23.2529L42.4614 1.01143C44.8684 -0.336493 48.142 -0.336493 50.549 1.01143L88.9666 23.2529C91.4699 24.6971 93.0104 27.393 93.0104 30.2817V74.6688C93.0104 77.5572 91.4699 80.253 88.9666 81.6972L50.549 103.939C49.2973 104.517 47.8531 104.806 46.5052 104.806V104.806ZM58.348 74.2833C41.4983 74.2833 38.0322 66.5808 38.0322 60.0334C38.0322 59.4557 38.5136 58.8781 39.1875 58.8781H44.1941C44.7718 58.8781 45.2535 59.2632 45.2535 59.8409C46.0238 64.9437 48.2382 67.4474 58.4443 67.4474C66.5322 67.4474 69.9987 65.618 69.9987 61.2854C69.9987 58.7818 69.0359 56.9525 56.4224 55.7004C45.9275 54.6414 39.3801 52.3306 39.3801 43.9543C39.3801 36.1548 45.9271 31.5334 56.9038 31.5334C69.2281 31.5334 75.2941 35.7697 76.0643 45.013C76.0643 45.3018 75.968 45.5907 75.7755 45.8795C75.5829 46.0721 75.2941 46.2646 75.0052 46.2646H69.9987C69.5169 46.2646 69.0359 45.8795 68.9392 45.3981C67.7839 40.1027 64.7992 38.3696 56.9038 38.3696C48.046 38.3696 46.9866 41.4506 46.9866 43.7613C46.9866 46.5538 48.2382 47.42 60.1774 48.9605C72.0206 50.5009 77.6048 52.7158 77.6048 60.9962C77.5085 69.4693 70.5763 74.2833 58.348 74.2833Z" fill="#539E43"/>
</g>
<defs>
<clipPath id="clip0">
<rect width="93.0104" height="105" fill="white"/>
</clipPath>
</defs>
</svg>
