<svg width="118" height="105" viewBox="0 0 118 105" fill="none" xmlns="http://www.w3.org/2000/svg">
<path d="M97.0195 33.9978C95.7637 33.5673 94.4973 33.1686 93.2214 32.8018C93.4357 31.9268 93.633 31.0624 93.8082 30.2132C96.6835 16.268 94.8038 5.03347 88.3834 1.33452C82.2276 -2.21153 72.1602 1.48604 61.9929 10.3268C60.9908 11.1996 60.011 12.0976 59.0544 13.0199C58.414 12.4066 57.7623 11.8052 57.0996 11.216C46.4436 1.76328 35.7628 -2.22074 29.3493 1.4888C23.199 5.04591 21.3778 15.6072 23.9664 28.8233C24.224 30.1323 24.5148 31.4344 24.8385 32.7286C23.3267 33.1578 21.8678 33.6147 20.4716 34.101C7.97837 38.4529 0 45.2729 0 52.347C0 59.6533 8.56514 66.9816 21.5774 71.4253C22.6323 71.784 23.696 72.1165 24.7676 72.4223C24.4196 73.8162 24.1106 75.2195 23.8411 76.6306C21.3732 89.6174 23.3004 99.9291 29.4341 103.464C35.7692 107.114 46.4021 103.362 56.7552 94.3199C57.5948 93.5847 58.4158 92.8288 59.2176 92.0527C60.2535 93.0514 61.3172 94.021 62.4072 94.9604C72.4363 103.582 82.341 107.064 88.4687 103.52C94.7978 99.8591 96.8549 88.7816 94.1843 75.3043C93.9739 74.2484 93.738 73.1978 93.4767 72.1533C94.2235 71.9323 94.9564 71.7048 95.6708 71.4681C109.198 66.9904 118 59.7509 118 52.347C118 45.2471 109.764 38.3811 97.0195 33.9978ZM94.0856 66.6878C93.4403 66.901 92.7784 67.1069 92.1036 67.3072C90.6102 62.5836 88.5949 57.5611 86.1285 52.3714C88.482 47.3056 90.4198 42.3472 91.8713 37.6544C93.0785 38.0035 94.2497 38.3714 95.379 38.7597C106.299 42.5157 112.959 48.0683 112.959 52.347C112.959 56.9044 105.766 62.8208 94.0856 66.6878ZM89.2393 76.2824C90.4203 82.2416 90.5885 87.6298 89.8063 91.8422C89.1038 95.6273 87.6906 98.1505 85.9427 99.1614C82.2243 101.312 74.2718 98.5166 65.6951 91.1427C64.6812 90.2692 63.6918 89.3678 62.7281 88.4394C66.0533 84.8063 69.3762 80.5828 72.6193 75.8919C78.3239 75.3862 83.7132 74.5591 88.6005 73.4304C88.8411 74.4007 89.055 75.3522 89.2393 76.2824ZM40.2288 98.7897C36.5957 100.071 33.7019 100.108 31.9526 99.1006C28.2306 96.9559 26.6832 88.6761 28.7938 77.5701C29.0447 76.2577 29.332 74.9525 29.6553 73.656C34.4887 74.7245 39.8388 75.4926 45.5568 75.9559C48.822 80.546 52.2408 84.7649 55.6863 88.4592C54.9541 89.1671 54.2045 89.8569 53.4383 90.5279C48.8598 94.5262 44.2721 97.363 40.2288 98.7897ZM23.2082 66.6597C17.4543 64.6947 12.7025 62.141 9.44553 59.3544C6.51858 56.8505 5.04127 54.3641 5.04127 52.347C5.04127 48.054 11.4469 42.5783 22.131 38.8568C23.4276 38.4055 24.7846 37.9795 26.1928 37.5798C27.6696 42.3785 29.6065 47.3959 31.9439 52.4695C29.5761 57.6182 27.6115 62.7158 26.1204 67.5711C25.1423 67.2912 24.1713 66.9873 23.2082 66.6597ZM28.9137 27.8558C26.6961 16.5328 28.1688 7.99143 31.8752 5.84768C35.8227 3.56439 44.5519 6.81985 53.7527 14.9822C54.3527 15.5157 54.9429 16.06 55.5231 16.6148C52.0947 20.293 48.7073 24.4806 45.471 29.0435C39.9213 29.5574 34.609 30.3827 29.7249 31.4884C29.424 30.2847 29.1535 29.0736 28.9137 27.8562V27.8558ZM79.8136 40.4134C78.66 38.4225 77.4636 36.4567 76.2252 34.5173C79.9902 34.993 83.5975 35.6244 86.9849 36.3962C85.9681 39.6531 84.7005 43.0578 83.2084 46.5485C82.1178 44.4811 80.986 42.4357 79.8136 40.4134ZM59.0567 20.2143C61.3817 22.731 63.7103 25.5407 66.0007 28.5894C61.3545 28.3702 56.7005 28.3692 52.0541 28.5866C54.3468 25.566 56.6953 22.7601 59.0567 20.2143ZM38.1665 40.4479C37.0088 42.4539 35.8981 44.4866 34.8354 46.5444C33.3677 43.066 32.1117 39.6457 31.0861 36.3428C34.4528 35.5903 38.043 34.9751 41.784 34.5081C40.5318 36.4593 39.3257 38.4397 38.1665 40.4475V40.4479ZM41.8914 70.5443C38.0264 70.1132 34.3823 69.5297 31.0165 68.7975C32.0582 65.4357 33.3419 61.9426 34.8413 58.3896C35.9083 60.4489 37.0237 62.4828 38.1864 64.4897C39.382 66.5529 40.6201 68.5737 41.8914 70.5443ZM59.1959 84.8344C56.8064 82.2591 54.4234 79.4099 52.0961 76.3455C54.3556 76.4339 56.6589 76.4791 59 76.4791C61.4052 76.4791 63.7827 76.4252 66.1229 76.3211C63.8251 79.4407 61.5052 82.2941 59.1959 84.8344ZM83.2559 58.2081C84.8332 61.8002 86.1626 65.2749 87.2181 68.5792C83.7971 69.3593 80.1031 69.9875 76.2109 70.454C77.4581 68.4786 78.6659 66.4786 79.8335 64.4552C81.0205 62.3985 82.1616 60.3156 83.2559 58.2081ZM75.467 61.9389C73.6796 65.0411 71.7916 68.0845 69.8062 71.0642C66.2098 71.3187 62.6054 71.4451 59 71.4432C55.3277 71.4432 51.7559 71.329 48.3164 71.1061C46.2792 68.1333 44.3552 65.0846 42.5487 61.9665H42.5491C40.7511 58.8649 39.0716 55.6962 37.5143 52.4672C39.0677 49.2375 40.7421 46.0673 42.5339 42.9633L42.5335 42.9638C44.3247 39.859 46.2332 36.8234 48.2551 33.8633C51.7642 33.5981 55.3627 33.4599 58.9995 33.4599H59C62.6534 33.4599 66.2565 33.5995 69.7647 33.8666C71.7662 36.8222 73.6626 39.8474 75.4504 42.9366C77.2482 46.0338 78.9448 49.1885 80.5373 52.3958C78.9611 55.636 77.27 58.819 75.467 61.9389ZM85.8657 5.69755C89.8169 7.97439 91.3537 17.1559 88.871 29.1964C88.7125 29.9645 88.5346 30.747 88.341 31.5404C83.4449 30.4112 78.1289 29.5717 72.5631 29.0499C69.3209 24.4368 65.9611 20.2428 62.5884 16.612C63.4723 15.7607 64.3773 14.9315 65.3024 14.1252C74.0141 6.55091 82.1561 3.56025 85.8657 5.69755ZM59 41.8194C64.8193 41.8194 69.537 46.5329 69.537 52.347C69.537 58.1612 64.8193 62.8747 59 62.8747C53.1807 62.8747 48.463 58.1612 48.463 52.347C48.463 46.5329 53.1807 41.8194 59 41.8194Z" fill="#00D8FF"/>
</svg>
