<svg width="118" height="118" viewBox="0 0 118 118" fill="none" xmlns="http://www.w3.org/2000/svg">
<path d="M0 59V118H118V0H0V59Z" fill="#007ACC"/>
<path d="M26.0941 59.3917L26.0568 64.2237H41.4152V107.865H52.2795V64.2237H67.6379V59.4853C67.6379 56.8625 67.5817 54.6712 67.507 54.615C67.4508 54.5403 58.1044 54.5025 46.7727 54.5214L26.1508 54.5777L26.0946 59.3912L26.0941 59.3917Z" fill="white"/>
<path d="M95.2144 54.4402C98.211 55.1897 100.496 56.519 102.594 58.6919C103.68 59.8534 105.291 61.9701 105.422 62.4757C105.459 62.6255 100.328 66.072 97.2186 68.001C97.1061 68.0761 96.6563 67.5889 96.1506 66.8394C94.6337 64.6297 93.0416 63.6742 90.6065 63.5059C87.0296 63.2621 84.7254 65.1353 84.7443 68.2628C84.7443 69.181 84.8752 69.724 85.2499 70.4734C86.0367 72.1029 87.4974 73.0768 92.0865 75.0621C100.534 78.6961 104.148 81.0934 106.396 84.5021C108.906 88.3048 109.468 94.3731 107.763 98.887C105.891 103.794 101.246 107.129 94.7083 108.233C92.6857 108.589 87.8911 108.533 85.7182 108.14C80.9798 107.297 76.4843 104.956 73.7122 101.884C72.6257 100.685 70.5091 97.5572 70.6405 97.3323C70.6967 97.2576 71.1835 96.958 71.7265 96.6395C72.251 96.3399 74.2367 95.1968 76.1095 94.1108L79.4997 92.144L80.2114 93.1931C81.2043 94.71 83.3766 96.7893 84.688 97.4821C88.4525 99.4678 93.6224 99.1866 96.1695 96.9013C97.2559 95.9089 97.7054 94.8787 97.7054 93.3613C97.7054 91.9942 97.5367 91.3949 96.825 90.3652C95.9077 89.0538 94.0345 87.9485 88.7148 85.6452C82.6276 83.0225 80.0054 81.3931 77.608 78.8081C76.222 77.3101 74.9106 74.9123 74.3676 72.9081C73.9182 71.2414 73.8053 67.0644 74.1616 65.3787C75.4167 59.4971 79.8556 55.3957 86.2612 54.1779C88.34 53.7847 93.1725 53.9346 95.2144 54.4407V54.4402Z" fill="white"/>
</svg>
